<?xml version="1.0" standalone="no"?>
<!DOCTYPE svg PUBLIC "-//W3C//DTD SVG 20010904//EN"
 "http://www.w3.org/TR/2001/REC-SVG-20010904/DTD/svg10.dtd">
<svg version="1.0" xmlns="http://www.w3.org/2000/svg"
 width="512.000000pt" height="512.000000pt" viewBox="0 0 512.000000 512.000000"
 preserveAspectRatio="xMidYMid meet">
<metadata>
Created by potrace 1.14, written by Peter Selinger 2001-2017
</metadata>
<g transform="translate(0.000000,512.000000) scale(0.100000,-0.100000)"
fill="#000000" stroke="none">
<path d="M2379 5116 c-2 -2 -38 -6 -79 -10 -64 -6 -207 -29 -315 -51 -16 -3
-77 -19 -134 -36 -1002 -288 -1729 -1157 -1839 -2199 -8 -82 -8 -460 0 -520 4
-25 10 -70 14 -100 4 -30 8 -59 9 -65 1 -5 5 -28 9 -50 4 -22 14 -69 23 -104
8 -36 16 -73 18 -82 8 -42 89 -272 122 -349 225 -514 599 -934 1077 -1209 229
-132 493 -233 746 -284 214 -44 289 -51 525 -52 169 0 311 8 370 20 11 3 34 6
50 9 303 44 669 184 955 365 229 145 410 305 604 531 164 192 337 494 431 755
26 72 49 137 50 145 2 8 13 51 25 95 11 44 23 95 26 114 2 18 6 36 8 40 4 6 8
26 22 123 13 91 18 189 18 353 1 192 -2 251 -15 330 -4 28 -10 68 -13 90 -3
22 -7 47 -9 55 -2 8 -7 33 -11 55 -4 22 -17 73 -28 113 -10 40 -21 81 -23 90
-7 36 -69 201 -111 299 -190 440 -506 818 -916 1097 -54 36 -101 66 -105 66
-3 0 -14 6 -22 14 -20 18 -257 137 -331 166 -150 60 -378 127 -497 146 -19 3
-45 8 -57 10 -11 2 -39 6 -61 9 -22 3 -56 8 -75 11 -39 6 -456 15 -461 10z"/>
</g>
</svg>
