<svg width="32" height="24" viewBox="0 0 32 24" fill="none" xmlns="http://www.w3.org/2000/svg">
<path d="M27.0842 2.0336C30.6473 7.25949 32.4069 13.1542 31.7491 19.9403C31.7464 19.969 31.7314 19.9954 31.7077 20.0127C29.0095 21.9891 26.3953 23.1886 23.8177 23.984C23.7977 23.9901 23.7762 23.9898 23.7563 23.9831C23.7364 23.9764 23.7192 23.9636 23.7069 23.9466C23.1114 23.1201 22.5704 22.2487 22.0963 21.3337C22.0691 21.2798 22.094 21.2149 22.15 21.1936C23.0093 20.8707 23.8264 20.4836 24.6124 20.0253C24.6743 19.9891 24.6782 19.9005 24.621 19.8581C24.4542 19.7345 24.289 19.6047 24.1308 19.4749C24.1013 19.4509 24.0614 19.4462 24.0279 19.4623C18.9253 21.8129 13.3356 21.8129 8.17259 19.4623C8.13907 19.4473 8.09924 19.4525 8.07045 19.4761C7.9127 19.6059 7.74707 19.7345 7.58183 19.8581C7.52465 19.9005 7.52938 19.9891 7.59169 20.0253C8.37766 20.4749 9.19477 20.8707 10.0529 21.1952C10.1085 21.2165 10.1349 21.2798 10.1073 21.3337C9.64356 22.2499 9.10249 23.1213 8.49596 23.9478C8.46954 23.9813 8.42616 23.9966 8.38515 23.984C5.81982 23.1886 3.20559 21.9891 0.507368 20.0127C0.484889 19.9954 0.46872 19.9678 0.466354 19.9391C-0.0833867 14.0692 1.037 8.12576 5.12693 2.03242C5.13679 2.01629 5.15177 2.0037 5.16912 1.99622C7.18155 1.07489 9.33753 0.397063 11.5909 0.00995916C11.6319 0.00366479 11.6729 0.0225479 11.6942 0.0587405C11.9727 0.550488 12.2909 1.1811 12.5062 1.69646C14.8815 1.33453 17.2938 1.33453 19.7187 1.69646C19.934 1.19212 20.2413 0.550488 20.5185 0.0587405C20.5284 0.0407857 20.5437 0.0264013 20.5622 0.0176409C20.5808 0.00888054 20.6016 0.006192 20.6218 0.00995916C22.8764 0.398243 25.0324 1.07607 27.0432 1.99622C27.061 2.0037 27.0756 2.01629 27.0842 2.0336ZM13.7138 13.1943C13.7386 11.459 12.4703 10.0231 10.8783 10.0231C9.29928 10.0231 8.04324 11.4464 8.04324 13.1943C8.04324 14.9418 9.32412 16.3651 10.8783 16.3651C12.4577 16.3651 13.7138 14.9418 13.7138 13.1943ZM24.1967 13.1943C24.2215 11.459 22.9533 10.0231 21.3616 10.0231C19.7822 10.0231 18.5262 11.4464 18.5262 13.1943C18.5262 14.9418 19.8071 16.3651 21.3616 16.3651C22.9533 16.3651 24.1967 14.9418 24.1967 13.1943Z" fill="currentColor"/>
</svg>

