<svg width="26" height="24" viewBox="0 0 26 24" fill="none" xmlns="http://www.w3.org/2000/svg">
<path d="M0.617188 12.2878C0.617188 5.50136 6.11951 0 12.905 0C19.6912 0 25.1927 5.50136 25.1927 12.2878C25.1927 17.7152 21.6763 22.3195 16.7967 23.9461C16.1737 24.0668 15.9526 23.6836 15.9526 23.3566C15.9526 23.2224 15.9541 22.9872 15.9562 22.6727C15.9605 22.0389 15.9668 21.0834 15.9668 19.9845C15.9668 18.8382 15.5741 18.0903 15.1334 17.709C17.8696 17.4048 20.7441 16.3656 20.7441 11.6461C20.7441 10.3045 20.2674 9.20837 19.4796 8.34787C19.6072 8.03833 20.0279 6.78859 19.3591 5.09602C19.3591 5.09602 18.3287 4.76575 15.9833 6.35559C15.0013 6.08324 13.9493 5.94678 12.905 5.94216C11.8607 5.94678 10.8095 6.08324 9.82942 6.35559C7.48123 4.76575 6.44939 5.09602 6.44939 5.09602C5.78221 6.78859 6.20277 8.03833 6.33037 8.34787C5.54427 9.20837 5.06424 10.3046 5.06424 11.6461C5.06424 16.3544 7.93341 17.408 10.6626 17.7188C10.3113 18.0257 9.99277 18.5677 9.88252 19.362C9.18132 19.6758 7.40269 20.219 6.30676 18.3404C6.30676 18.3404 5.65702 17.1608 4.42308 17.0741C4.42308 17.0741 3.22422 17.0585 4.33905 17.8212C4.33905 17.8212 5.14442 18.1988 5.70338 19.6191C5.70338 19.6191 6.42471 21.8122 9.84329 21.0689C9.84614 21.6304 9.85086 22.1744 9.85455 22.6C9.85761 22.9526 9.85997 23.2239 9.85997 23.3566C9.85997 23.6812 9.63446 24.0615 9.02038 23.9478C4.13802 22.323 0.617188 17.717 0.617188 12.2878Z" fill="currentColor"/>
<path d="M5.00917 17.5418C5.09658 17.5836 5.19275 17.5653 5.21974 17.5043C5.25067 17.443 5.19979 17.3589 5.11045 17.3189C5.0215 17.2767 4.92532 17.2943 4.89882 17.3571C4.86991 17.4184 4.92002 17.5017 5.00917 17.5418Z" fill="currentColor"/>
<path d="M5.57323 17.9868C5.651 18.0727 5.76558 18.0979 5.82418 18.0436C5.88547 17.9886 5.86976 17.8749 5.78939 17.7883C5.70882 17.7025 5.59771 17.6772 5.53728 17.7314C5.47782 17.7866 5.49285 17.9011 5.57323 17.9868Z" fill="currentColor"/>
<path d="M5.9643 18.6276C6.04034 18.7369 6.1635 18.7859 6.23886 18.7336C6.31587 18.68 6.31577 18.549 6.2406 18.4379C6.1635 18.3295 6.04227 18.2823 5.96594 18.3348C5.88904 18.3873 5.88904 18.5184 5.9643 18.6276Z" fill="currentColor"/>
<path d="M6.62425 19.4858C6.7293 19.5871 6.8727 19.607 6.94006 19.5328C7.01186 19.4594 6.97938 19.3177 6.8727 19.2188C6.76688 19.1183 6.62261 19.0974 6.55448 19.1718C6.48692 19.2461 6.5169 19.3867 6.62425 19.4858Z" fill="currentColor"/>
<path d="M7.5394 19.9017C7.67856 19.9426 7.81675 19.8988 7.84634 19.8026C7.87525 19.7047 7.78418 19.5928 7.6454 19.5509C7.50518 19.5072 7.36641 19.5527 7.3375 19.6496C7.30945 19.7468 7.40043 19.8596 7.5394 19.9017Z" fill="currentColor"/>
<path d="M8.61721 20.1043C8.76331 20.1024 8.88136 20.0184 8.8779 19.917C8.8779 19.8163 8.7582 19.7349 8.6121 19.7378C8.46523 19.7402 8.34988 19.8234 8.34988 19.9258C8.35142 20.0254 8.47025 20.1074 8.61721 20.1043Z" fill="currentColor"/>
<path d="M9.66207 20.1056C9.80711 20.0786 9.90868 19.9771 9.89114 19.8782C9.87264 19.7777 9.74264 19.7182 9.59731 19.7435C9.45497 19.7698 9.35147 19.8712 9.3692 19.9726C9.38741 20.0706 9.51944 20.1316 9.66207 20.1056Z" fill="currentColor"/>
</svg>

