<svg width="24" height="24" viewBox="0 0 24 24" fill="none" xmlns="http://www.w3.org/2000/svg">
  <path d="M9.99396 0C4.48629 0 0 4.48629 0 9.99396C0 15.5016 4.48629 19.9879 9.99396 19.9879C12.389 19.9879 14.5886 19.1374 16.3124 17.7256L22.2795 23.6927C22.3716 23.7886 22.4819 23.8652 22.604 23.918C22.726 23.9707 22.8574 23.9986 22.9903 23.9999C23.1233 24.0013 23.2552 23.9761 23.3783 23.9259C23.5014 23.8756 23.6132 23.8013 23.7073 23.7073C23.8013 23.6132 23.8756 23.5014 23.9259 23.3783C23.9761 23.2552 24.0013 23.1233 23.9999 22.9903C23.9986 22.8574 23.9707 22.726 23.918 22.604C23.8652 22.4819 23.7886 22.3716 23.6927 22.2795L17.7256 16.3124C19.1374 14.5886 19.9879 12.389 19.9879 9.99396C19.9879 4.48629 15.5016 0 9.99396 0ZM9.99396 1.99879C14.4214 1.99879 17.9891 5.56652 17.9891 9.99396C17.9891 14.4214 14.4214 17.9891 9.99396 17.9891C5.56652 17.9891 1.99879 14.4214 1.99879 9.99396C1.99879 5.56652 5.56652 1.99879 9.99396 1.99879Z" fill="white" fill-opacity="0.5"/>
</svg>
