<svg width="53" height="52" viewBox="0 0 53 52" fill="none" xmlns="http://www.w3.org/2000/svg">
  <path fill-rule="evenodd" clip-rule="evenodd" d="M8.84337 19.977C8.18874 20.6006 8.45483 21.5444 9.31174 21.8221C10.3771 22.1676 11.5035 21.6146 11.9417 20.5781C12.6233 18.9656 11.5019 17.0525 9.89695 16.6742C8.47871 16.3398 7.02208 16.8566 6.04599 17.9349C2.99482 21.3055 5.47214 27.2084 9.77988 27.651C11.3761 27.8151 13.27 27.5754 14.6966 26.791C15.1016 26.5683 15.4757 26.2971 15.8485 26.0268C16.4746 25.573 17.0972 25.1216 17.8573 24.9063C16.729 27.9287 14.8651 31.093 11.4188 31.603C10.3345 31.7635 9.24142 31.6744 8.16323 31.5865C6.04959 31.4141 3.993 31.2465 2.1708 32.9728C0.882509 34.1933 0.098879 36.1028 0.713 37.8909C1.43213 39.9852 4.10764 41.3338 5.91172 39.6687C6.68856 38.9517 7.06726 37.6375 6.41978 36.6939C5.83563 35.8427 4.5389 35.7105 4.04372 36.6887C4.93716 36.405 6.25729 36.9571 5.58171 38.1309C4.87991 39.3504 3.43241 39.0888 2.7525 38.0107C2.20229 37.1383 2.38 36.0627 2.94776 35.2459C3.98214 33.7576 5.60173 33.5903 7.20446 34.0298C8.04555 34.2605 8.82317 34.6309 9.5904 34.9964C11.0841 35.7079 12.5385 36.4007 14.3454 36.0071C15.5786 35.7385 16.5075 34.9077 17.423 34.0888C18.3417 33.2671 19.247 32.4574 20.4328 32.2402C20.3815 32.4677 20.3286 32.6938 20.2759 32.9193C19.9576 34.2806 19.6453 35.6159 19.7409 37.0493C19.7925 37.8231 19.8976 38.6027 20.003 39.3838C20.2895 41.5086 20.5776 43.6448 19.7931 45.7058C18.4259 49.2976 13.1682 51.4344 11.0424 47.2687C10.771 46.7367 10.5916 46.1822 10.5161 45.5855C10.355 44.3116 10.8961 43.0307 12.0041 42.3835C13.2829 41.6366 15.0385 42.4069 15.3533 43.9023C15.5405 44.792 15.0764 45.8364 14.2282 46.1684C13.4098 46.4888 12.5657 45.8736 12.7065 44.9844L13.4089 45.3451C13.2311 43.7451 11.4651 45.1918 12.2216 46.4219C12.9406 47.591 15.0898 47.3047 15.9734 46.5065C16.9871 45.5906 17.1081 43.9311 16.6306 42.7001C14.7554 37.866 7.94806 40.5167 7.94665 45.1046C7.9463 46.1461 8.27689 47.2132 8.77652 48.1103C11.5279 53.0502 18.2218 52.9549 21.9528 49.3019C23.6071 47.6823 24.8091 45.3132 24.8661 42.9405C24.8799 42.3684 24.7895 41.801 24.699 41.2336C24.5858 40.5232 24.4726 39.8129 24.5638 39.0932C24.7141 37.9092 25.2375 36.9259 25.7674 35.9304C26.0319 35.4336 26.298 34.9337 26.5201 34.4043C26.6117 34.5638 26.7059 34.7252 26.8013 34.8887C27.5359 36.1469 28.338 37.5207 28.4898 38.973C28.5913 39.9422 28.5372 40.8563 28.4846 41.7477C28.3849 43.435 28.29 45.0412 29.2628 46.7878C31.4016 50.6274 35.7237 52.9426 39.9825 51.6305C43.7342 50.4744 46.7701 45.637 44.1078 41.9788C42.6467 39.971 39.4426 39.5122 37.5288 41.0987C35.9775 42.3846 35.4849 45.211 37.1777 46.6036C38.1989 47.4438 41.165 47.5678 41.009 45.5855C40.9317 44.6035 39.7211 44.1505 39.6313 45.3451H39.9825V44.8642C41.029 45.772 39.3113 46.6333 38.4625 46.0046C35.8704 44.0847 39.5802 40.5827 41.7169 42.9457C42.0517 43.316 42.329 43.7751 42.4656 44.263C43.3175 47.3073 40.4055 49.8371 37.6413 49.5321C35.5405 49.3003 33.9255 47.5341 33.2196 45.5855C32.4984 43.5947 32.7815 41.5405 33.0628 39.4995L33.0628 39.4994C33.148 38.8812 33.2331 38.2642 33.29 37.6505C33.4627 35.788 33.166 34.0037 32.6075 32.2402C33.796 32.5303 34.7103 33.3094 35.6305 34.0937C36.6104 34.9288 37.597 35.7696 38.929 36.0321C40.7363 36.3883 42.1979 35.6827 43.6994 34.9579C44.4624 34.5896 45.2357 34.2163 46.0699 33.9749C47.6784 33.5093 49.3648 33.9413 50.2579 35.4864C50.7793 36.3882 50.7131 37.4574 50.025 38.2464C49.3013 39.0764 47.9523 39.2768 47.3786 38.1296C46.7598 36.8922 48.0564 36.3373 48.9965 36.6887C48.4231 35.6704 47.0402 35.8266 46.4864 36.8137C45.888 37.8801 46.3348 39.1756 47.241 39.8844C48.8969 41.1798 51.3605 40.0139 52.1356 38.2516C52.9273 36.4516 52.3778 34.3033 50.982 32.9837C49.1442 31.2463 47.0527 31.4154 44.9126 31.5885C43.8191 31.6769 42.7129 31.7663 41.6214 31.603C38.1809 31.0882 36.3057 27.9178 35.1829 24.9063C35.9794 25.1302 36.6411 25.5887 37.3072 26.0503C37.682 26.31 38.0582 26.5707 38.4607 26.7911C39.9068 27.5832 41.7577 27.8535 43.3774 27.6368C47.6845 27.0606 50.0311 20.9443 46.7617 17.7136C45.7597 16.7234 44.1253 16.2611 42.7921 16.7871C41.2725 17.3868 40.3189 19.4356 41.2667 20.9383C41.8109 21.8012 43.0287 22.2342 43.9576 21.7254C44.6393 21.352 44.7349 20.4015 44.0798 19.977C44.5456 21.7995 41.8497 21.004 42.1169 19.3758C42.3002 18.2588 43.6549 17.879 44.5481 18.2902C45.6468 18.796 46.3292 20.0852 46.2244 21.2995C46.0156 23.7205 43.5714 24.9344 41.5044 23.9564C40.8925 23.6668 40.4171 23.1906 39.9409 22.7135C39.653 22.4252 39.3648 22.1365 39.046 21.8886C38.8456 21.7327 38.63 21.5929 38.4144 21.4531C37.8589 21.0928 37.303 20.7324 37.0058 20.0972C36.5078 19.0329 36.9851 18.0846 37.4548 17.1512C37.5861 16.8904 37.7168 16.6308 37.8254 16.3701C38.538 14.66 38.9658 12.7082 38.792 10.8396C37.9198 1.46438 27.0499 -2.76164 19.6133 1.92004C16.4479 3.91282 14.1126 7.78873 14.2334 11.6812C14.287 13.4055 14.642 15.038 15.333 16.6106C15.432 16.8361 15.5466 17.059 15.6611 17.2819C16.0994 18.1352 16.5371 18.9872 16.1049 19.977C15.7797 20.7219 15.0868 21.1895 14.4023 21.6513C14.0047 21.9195 13.61 22.1859 13.2918 22.5036L13.2713 22.524C12.515 23.2793 11.7812 24.0121 10.7164 24.2532C7.49876 24.982 5.32874 20.4924 8.14098 18.4924C9.58872 17.4628 11.9683 19.1642 10.4572 20.6709C9.69771 21.4282 8.65618 21.0817 8.84337 19.977ZM20.4851 10.2357C15.3813 11.5017 17.6024 19.6154 22.6981 18.3894C27.9224 17.1324 25.6682 8.95021 20.4851 10.2357ZM30.2998 10.2245C25.0498 11.4817 27.2924 19.6893 32.5218 18.3726C37.5544 17.1053 35.4086 9.00115 30.2998 10.2245Z" fill="currentColor"/>
</svg>

