<svg width="28" height="20" viewBox="0 0 28 20" fill="none" xmlns="http://www.w3.org/2000/svg">
<g clip-path="url(#clip0_121_2)">
<mask id="mask0_121_2" style="mask-type:luminance" maskUnits="userSpaceOnUse" x="0" y="0" width="28" height="20">
<path d="M28 0H0V19.6672H28V0Z" fill="white"/>
</mask>
<g mask="url(#mask0_121_2)">
<path d="M11.6307 19.5902C6.31298 19.4924 4.4967 19.4043 3.38031 19.1743C2.62499 19.0215 1.96863 18.6821 1.48735 18.19C1.1154 17.8175 0.819591 17.2492 0.590096 16.4608C0.393238 15.8038 0.316567 15.2574 0.207258 13.9223C0.0399285 10.9093 3.87907e-05 8.44603 0.207258 5.69363C0.378215 4.17368 0.461102 2.36932 1.59666 1.31664C2.13285 0.823977 2.75657 0.506932 3.45698 0.375865C4.55109 0.168128 9.2125 0.00390625 14.0381 0.00390625C18.8529 0.00390625 23.5246 0.168128 24.6197 0.375865C25.4947 0.540086 26.3154 1.03223 26.7971 1.66684C27.8332 3.29662 27.8514 5.32322 27.9565 6.90845C28 7.66377 28 11.9527 27.9565 12.708C27.7928 15.2133 27.6612 16.0997 27.2893 17.0187C27.0592 17.5989 26.8629 17.9051 26.523 18.2444C25.9901 18.7666 25.3106 19.1139 24.5752 19.2401C19.9734 19.5862 16.0657 19.6613 11.6307 19.5902ZM18.6778 9.52356C16.1175 8.1554 13.6661 6.8867 11.1604 5.57345V13.4301C13.7973 11.9968 16.5771 10.6835 18.6886 9.51269L18.6778 9.52356Z" fill="white"/>
</g>
</g>
<defs>
<clipPath id="clip0_121_2">
<rect width="28" height="19.8333" fill="white"/>
</clipPath>
</defs>
</svg>
